<?xml version="1.0" standalone="no"?>
<!DOCTYPE svg PUBLIC "-//W3C//DTD SVG 1.0//EN" "http://www.w3.org/TR/2001/REC-SVG-20010904/DTD/svg10.dtd">
<svg xmlns="http://www.w3.org/2000/svg" xmlns:xlink="http://www.w3.org/1999/xlink" id="body_1" width="200" height="80" viewBox="0 0 200 80">

<g transform="matrix(1.6000001 0 0 1.6000001 0 0)">
    <path d="M67.9045 18.7864C 67.9045 23.2748 64.5733 26.7195 60.1985 26.7195L60.1985 26.7195L53.8498 26.7195L53.8498 10.8262L60.1985 10.8262C 64.5733 10.8262 67.9045 14.2763 67.9045 18.7864zM64.4165 18.7864C 64.4165 16.0825 62.6915 14.3412 60.1985 14.3412L60.1985 14.3412L57.4946 14.3412L57.4946 23.2099L60.1985 23.2099C 62.6915 23.2099 64.4165 21.4902 64.4165 18.7864z" stroke="none" fill="#1C252C" fill-rule="nonzero" />
    <path d="M76.638 15.1362L76.638 18.992C 75.232 18.7648 73.2365 19.3326 73.2365 21.5769L73.2365 21.5769L73.2365 26.698L69.835 26.698L69.835 15.3417L73.2365 15.3417L73.2365 17.3804C 73.6907 15.8609 75.2103 15.1362 76.638 15.1362z" stroke="none" fill="#1C252C" fill-rule="nonzero" />
    <path d="M77.8707 12.3242C 77.8697 11.9197 77.9886 11.5239 78.2126 11.1871C 78.4366 10.8502 78.7554 10.5874 79.1289 10.4318C 79.5023 10.2763 79.9134 10.235 80.3103 10.3133C 80.7072 10.3915 81.0719 10.5858 81.3584 10.8715C 81.6448 11.1571 81.84 11.5213 81.9193 11.918C 81.9986 12.3147 81.9585 12.726 81.8039 13.0998C 81.6493 13.4736 81.3873 13.7932 81.0511 14.018C 80.7148 14.2429 80.3194 14.3629 79.9149 14.3629C 79.375 14.3587 78.8583 14.1427 78.476 13.7614C 78.0937 13.3802 77.8764 12.8641 77.8707 12.3242zM78.2114 15.3633L81.6129 15.3633L81.6129 26.7196L78.2114 26.7196L78.2114 15.3633z" stroke="none" fill="#1C252C" fill-rule="nonzero" />
    <path d="M95.1162 15.3633L90.9198 26.7195L87.0641 26.7195L82.8676 15.3633L86.6531 15.3633L88.9946 22.5718L91.3524 15.3849L95.1162 15.3633z" stroke="none" fill="#1C252C" fill-rule="nonzero" />
    <path d="M96.0248 12.3242C 96.0238 11.9194 96.1429 11.5235 96.3671 11.1865C 96.5913 10.8495 96.9105 10.5867 97.2842 10.4313C 97.658 10.2759 98.0694 10.235 98.4664 10.3137C 98.8635 10.3924 99.2282 10.5872 99.5144 10.8734C 99.8006 11.1596 99.9954 11.5243 100.074 11.9213C 100.153 12.3183 100.112 12.7298 99.9565 13.1035C 99.8011 13.4773 99.5382 13.7965 99.2013 14.0207C 98.8643 14.2449 98.4683 14.364 98.0636 14.3629C 97.5246 14.3573 97.0093 14.1407 96.6282 13.7596C 96.2471 13.3784 96.0305 12.8631 96.0248 12.3242zM96.3655 15.3633L99.767 15.3633L99.767 26.7196L96.3655 26.7196L96.3655 15.3633z" stroke="none" fill="#1C252C" fill-rule="nonzero" />
    <path d="M110.945 23.2966C 110.945 25.9085 108.679 27.0171 106.23 27.0171C 103.964 27.0171 102.239 26.1573 101.363 24.3132L101.363 24.3132L104.31 22.6368C 104.43 23.0469 104.687 23.4033 105.039 23.6464C 105.39 23.8895 105.814 24.0047 106.24 23.9726C 107.057 23.9726 107.462 23.7238 107.462 23.2695C 107.462 22.0258 101.887 22.6801 101.887 18.7595C 101.887 16.2881 103.974 15.039 106.332 15.039C 107.219 15.0117 108.096 15.2226 108.873 15.6497C 109.65 16.0767 110.298 16.7043 110.75 17.467L110.75 17.467L107.852 19.0299C 107.727 18.7314 107.515 18.4771 107.244 18.2998C 106.974 18.1224 106.656 18.0302 106.332 18.0349C 105.743 18.0349 105.375 18.262 105.375 18.6676C 105.364 19.9654 110.945 19.1056 110.945 23.2966z" stroke="none" fill="#1C252C" fill-rule="nonzero" />
    <path d="M124.167 15.3633L124.167 26.7196L120.765 26.7196L120.765 25.638C 120.34 26.1052 119.816 26.4718 119.231 26.7112C 118.647 26.9507 118.016 27.057 117.385 27.0224C 114.417 27.0224 111.978 24.4159 111.978 21.0361C 111.978 17.6562 114.427 15.0497 117.385 15.0497C 118.016 15.0163 118.646 15.1231 119.231 15.3625C 119.815 15.6019 120.339 15.9678 120.765 16.4341L120.765 16.4341L120.765 15.3525L124.167 15.3633zM120.765 21.0307C 120.765 20.3135 120.48 19.6258 119.973 19.1187C 119.466 18.6117 118.779 18.3268 118.061 18.3268C 117.344 18.3268 116.657 18.6117 116.149 19.1187C 115.642 19.6258 115.358 20.3135 115.358 21.0307C 115.358 21.7478 115.642 22.4355 116.149 22.9426C 116.657 23.4497 117.344 23.7345 118.061 23.7345C 118.779 23.7345 119.466 23.4497 119.973 22.9426C 120.48 22.4355 120.765 21.7478 120.765 21.0307z" stroke="none" fill="#1C252C" fill-rule="nonzero" />
    <path d="M60.9122 36.8321C 60.9122 38.5247 59.6198 39.9361 57.527 39.9361C 57.0526 39.9386 56.5824 39.8476 56.1431 39.6684C 55.7039 39.4891 55.3043 39.2252 54.9671 38.8915C 54.2861 38.2176 53.9007 37.3007 53.8957 36.3427C 53.8907 35.3846 54.2664 34.4638 54.9403 33.7828C 55.6142 33.1018 56.5311 32.7164 57.4891 32.7114C 58.0948 32.7049 58.6917 32.8573 59.2202 33.1533C 59.7487 33.4493 60.1904 33.8787 60.5012 34.3986L60.5012 34.3986L60.0308 34.6798C 59.7791 34.229 59.4097 33.8551 58.962 33.5979C 58.5144 33.3408 58.0053 33.21 57.4891 33.2197C 57.0815 33.2222 56.6783 33.3049 56.3027 33.4632C 55.927 33.6215 55.5863 33.8523 55.2998 34.1422C 55.0133 34.4322 54.7867 34.7758 54.633 35.1534C 54.4793 35.5309 54.4015 35.935 54.404 36.3427C 54.4065 36.7503 54.4892 37.1535 54.6475 37.5291C 54.8058 37.9048 55.0366 38.2455 55.3265 38.532C 55.6165 38.8185 55.9601 39.0451 56.3377 39.1988C 56.7152 39.3525 57.1193 39.4303 57.527 39.4278C 59.2304 39.4278 60.2579 38.3463 60.3715 37.0646L60.3715 37.0646L57.3972 37.0646L57.3972 36.5617L60.9122 36.5617L60.9122 36.8321z" stroke="none" fill="#1C252C" fill-rule="nonzero" />
    <path d="M67.6557 37.3459C 67.6557 37.4216 67.6557 37.5028 67.6557 37.5839L67.6557 37.5839L63.124 37.5839C 63.1655 38.1098 63.4099 38.5991 63.8054 38.9482C 64.201 39.2973 64.7168 39.479 65.2438 39.455C 65.5875 39.4747 65.9301 39.4006 66.235 39.2406C 66.5398 39.0805 66.7954 38.8406 66.9743 38.5465L66.9743 38.5465L67.4177 38.806C 67.1858 39.1655 66.8646 39.4587 66.4854 39.6568C 66.1063 39.8549 65.6822 39.9512 65.2546 39.9362C 64.7295 39.9732 64.2055 39.851 63.751 39.5855C 63.2964 39.3201 62.9325 38.9238 62.7066 38.4483C 62.4808 37.9729 62.4036 37.4404 62.485 36.9203C 62.5665 36.4003 62.8028 35.9169 63.1633 35.5333C 63.5237 35.1496 63.9914 34.8836 64.5053 34.7698C 65.0192 34.6561 65.5555 34.7 66.0442 34.8957C 66.5328 35.0915 66.951 35.43 67.2443 35.8671C 67.5376 36.3042 67.6922 36.8196 67.6881 37.3459L67.6881 37.3459L67.6557 37.3459zM63.1132 37.0918L67.1365 37.0918C 67.1238 36.583 66.9123 36.0994 66.5475 35.7446C 66.1826 35.3899 65.6933 35.1921 65.1843 35.1937C 64.6597 35.1773 64.1495 35.3667 63.7625 35.7213C 63.3756 36.0759 63.1425 36.5677 63.1132 37.0918z" stroke="none" fill="#1C252C" fill-rule="nonzero" />
    <path d="M70.538 35.3124L70.538 38.557C 70.538 39.4385 71.0085 39.4601 72.0306 39.3682L72.0306 39.3682L72.0306 39.8224C 70.7165 40.0225 70.0297 39.7035 70.0297 38.557L70.0297 38.557L70.0297 35.3124L68.9482 35.3124L68.9482 34.8203L70.0297 34.8203L70.0297 33.5711L70.538 33.4197L70.538 34.8203L72.0306 34.8203L72.0306 35.3124L70.538 35.3124z" stroke="none" fill="#1C252C" fill-rule="nonzero" />
    <path d="M83.3059 38.9248L84.1278 39.736L83.7709 40.0659L82.9273 39.2439C 82.1704 39.7979 81.2278 40.0363 80.2985 39.9087C 79.3691 39.7812 78.5257 39.2976 77.946 38.5601C 77.3664 37.8225 77.0959 36.8887 77.1916 35.9555C 77.2873 35.0224 77.7417 34.1629 78.4589 33.5583C 79.1762 32.9538 80.1002 32.6515 81.0361 32.7151C 81.972 32.7788 82.8466 33.2035 83.4753 33.8997C 84.1041 34.5958 84.4378 35.509 84.4062 36.4465C 84.3746 37.384 83.9801 38.2726 83.3059 38.9248zM82.5596 38.8761L81.0076 37.3458L81.3645 37.0159L82.9381 38.5625C 83.2364 38.271 83.4733 37.9227 83.6349 37.5382C 83.7965 37.1537 83.8795 36.7408 83.8791 36.3237C 83.8748 35.715 83.6904 35.1212 83.3491 34.6171C 83.0078 34.1131 82.5249 33.7214 81.9613 33.4914C 81.3977 33.2614 80.7787 33.2034 80.1822 33.3248C 79.5857 33.4462 79.0385 33.7414 78.6095 34.1734C 78.1806 34.6053 77.8892 35.1546 77.772 35.7519C 77.6548 36.3492 77.7171 36.9679 77.951 37.5299C 78.1849 38.0918 78.58 38.572 79.0864 38.9097C 79.5929 39.2475 80.1879 39.4277 80.7967 39.4277C 81.4272 39.4309 82.0432 39.2381 82.5596 38.8761z" stroke="none" fill="#1C252C" fill-rule="nonzero" />
    <path d="M90.6225 34.8203L90.6225 39.8279L90.125 39.8279L90.125 38.8761C 89.9661 39.2137 89.7108 39.4965 89.3912 39.689C 89.0717 39.8815 88.7022 39.975 88.3296 39.9577C 88.0656 39.9726 87.8015 39.9306 87.5551 39.8345C 87.3088 39.7384 87.086 39.5905 86.9019 39.4007C 86.7177 39.2109 86.5766 38.9838 86.4879 38.7346C 86.3993 38.4855 86.3653 38.2202 86.3882 37.9568L86.3882 37.9568L86.3882 34.8203L86.902 34.8203L86.902 37.9352C 86.8809 38.1357 86.904 38.3384 86.9698 38.5291C 87.0355 38.7197 87.1423 38.8936 87.2826 39.0385C 87.4228 39.1833 87.5931 39.2957 87.7815 39.3676C 87.9699 39.4396 88.1717 39.4693 88.3729 39.4547C 89.3517 39.4547 90.125 38.8166 90.125 37.4647L90.125 37.4647L90.125 34.8203L90.6225 34.8203z" stroke="none" fill="#1C252C" fill-rule="nonzero" />
    <path d="M97.8793 34.8205L97.8793 39.828L97.3385 39.828L97.3385 38.6924C 97.1261 39.0776 96.8122 39.3973 96.4308 39.6166C 96.0494 39.8358 95.6152 39.9464 95.1754 39.9362C 94.4827 39.9362 93.8184 39.661 93.3285 39.1712C 92.8387 38.6813 92.5635 38.017 92.5635 37.3243C 92.5635 36.6315 92.8387 35.9672 93.3285 35.4773C 93.8184 34.9875 94.4827 34.7123 95.1754 34.7123C 95.6146 34.7022 96.0482 34.8122 96.4294 35.0304C 96.8106 35.2487 97.1249 35.5669 97.3385 35.9507L97.3385 35.9507L97.3385 34.8205L97.8793 34.8205zM97.3385 37.3243C 97.3364 36.9052 97.2101 36.4962 96.9757 36.1489C 96.7412 35.8016 96.4091 35.5316 96.0212 35.373C 95.6334 35.2144 95.2072 35.1743 94.7966 35.2577C 94.3859 35.3412 94.0092 35.5444 93.7141 35.8419C 93.4189 36.1393 93.2185 36.5175 93.1382 36.9288C 93.0579 37.3401 93.1013 37.7659 93.2629 38.1525C 93.4244 38.5391 93.697 38.8692 94.0461 39.101C 94.3951 39.3328 94.8051 39.456 95.2241 39.4549C 95.5038 39.4571 95.781 39.4034 96.0396 39.2969C 96.2982 39.1904 96.5329 39.0332 96.7299 38.8347C 96.9269 38.6362 97.0822 38.4003 97.1867 38.141C 97.2913 37.8816 97.3429 37.6039 97.3385 37.3243z" stroke="none" fill="#1C252C" fill-rule="nonzero" />
    <path d="M100.2 32.5222L100.703 32.5222L100.703 39.8281L100.2 39.8281L100.2 32.5222z" stroke="none" fill="#1C252C" fill-rule="nonzero" />
    <path d="M102.882 33.2088C 102.882 33.1296 102.905 33.0523 102.949 32.9864C 102.993 32.9206 103.056 32.8693 103.129 32.8391C 103.202 32.8088 103.282 32.8008 103.36 32.8163C 103.438 32.8317 103.509 32.8698 103.565 32.9258C 103.621 32.9818 103.659 33.0531 103.674 33.1307C 103.69 33.2083 103.682 33.2888 103.652 33.3619C 103.621 33.435 103.57 33.4975 103.504 33.5415C 103.438 33.5855 103.361 33.6089 103.282 33.6089C 103.176 33.6089 103.074 33.5668 102.999 33.4917C 102.924 33.4167 102.882 33.3149 102.882 33.2088zM103.033 34.8311L103.536 34.8311L103.536 39.8387L103.033 39.8387L103.033 34.8311z" stroke="none" fill="#1C252C" fill-rule="nonzero" />
    <path d="M106.738 34.5501L106.738 34.8205L108.23 34.8205L108.23 35.3126L106.738 35.3126L106.738 39.828L106.224 39.828L106.224 35.3126L105.364 35.3126L105.364 34.8205L106.224 34.8205L106.224 34.5501C 106.224 33.3225 106.916 32.6087 108.23 32.7114L108.23 32.7114L108.23 33.1927C 107.208 33.1116 106.738 33.5821 106.738 34.5501z" stroke="none" fill="#1C252C" fill-rule="nonzero" />
    <path d="M109.641 33.2088C 109.641 33.1026 109.684 33.0009 109.759 32.9258C 109.834 32.8508 109.935 32.8086 110.042 32.8086C 110.148 32.8086 110.25 32.8508 110.325 32.9258C 110.4 33.0009 110.442 33.1026 110.442 33.2088C 110.442 33.3149 110.4 33.4167 110.325 33.4917C 110.25 33.5668 110.148 33.6089 110.042 33.6089C 109.935 33.6089 109.834 33.5668 109.759 33.4917C 109.684 33.4167 109.641 33.3149 109.641 33.2088zM109.787 34.8311L110.317 34.8311L110.317 39.8387L109.777 39.8387L109.787 34.8311z" stroke="none" fill="#1C252C" fill-rule="nonzero" />
    <path d="M117.347 37.3459C 117.347 37.4216 117.347 37.5028 117.347 37.5839L117.347 37.5839L112.81 37.5839C 112.854 38.1098 113.1 38.5982 113.496 38.947C 113.892 39.2957 114.408 39.4778 114.935 39.455C 115.279 39.4741 115.621 39.3997 115.926 39.2398C 116.231 39.0798 116.486 38.8402 116.666 38.5465L116.666 38.5465L117.104 38.806C 116.873 39.1663 116.552 39.46 116.172 39.6582C 115.793 39.8564 115.368 39.9523 114.941 39.9362C 114.416 39.9732 113.892 39.851 113.437 39.5855C 112.983 39.3201 112.619 38.9238 112.393 38.4483C 112.167 37.9729 112.09 37.4404 112.171 36.9203C 112.253 36.4003 112.489 35.9169 112.849 35.5333C 113.21 35.1496 113.677 34.8836 114.191 34.7698C 114.705 34.6561 115.242 34.7 115.73 34.8957C 116.219 35.0915 116.637 35.43 116.93 35.8671C 117.224 36.3042 117.378 36.8196 117.374 37.3459L117.374 37.3459L117.347 37.3459zM112.799 37.0918L116.806 37.0918C 116.795 36.5825 116.584 36.0982 116.219 35.7431C 115.854 35.388 115.364 35.1907 114.854 35.1937C 114.333 35.183 113.827 35.3747 113.444 35.7286C 113.061 36.0825 112.83 36.5711 112.799 37.0918z" stroke="none" fill="#1C252C" fill-rule="nonzero" />
    <path d="M124.221 32.8464L124.221 39.8765L123.723 39.8765L123.723 38.6652C 123.518 39.0583 123.206 39.3858 122.824 39.6105C 122.441 39.8352 122.003 39.9479 121.56 39.936C 120.867 39.936 120.203 39.6608 119.713 39.171C 119.223 38.6811 118.948 38.0168 118.948 37.324C 118.948 36.6313 119.223 35.967 119.713 35.4771C 120.203 34.9873 120.867 34.7121 121.56 34.7121C 122.003 34.7002 122.441 34.8129 122.824 35.0376C 123.206 35.2623 123.518 35.5898 123.723 35.9829L123.723 35.9829L123.723 32.8464L124.221 32.8464zM123.723 37.3511C 123.722 36.931 123.597 36.5206 123.362 36.1718C 123.128 35.8231 122.796 35.5515 122.407 35.3915C 122.019 35.2315 121.592 35.1901 121.18 35.2727C 120.768 35.3554 120.39 35.5582 120.093 35.8556C 119.797 36.1531 119.595 36.5318 119.513 36.9439C 119.432 37.356 119.474 37.783 119.635 38.171C 119.796 38.5591 120.068 38.8907 120.418 39.1239C 120.767 39.3572 121.178 39.4817 121.598 39.4817C 121.88 39.484 122.16 39.4295 122.421 39.3214C 122.682 39.2134 122.919 39.054 123.117 38.8527C 123.316 38.6515 123.471 38.4125 123.575 38.1499C 123.679 37.8873 123.73 37.6064 123.723 37.324L123.723 37.324L123.723 37.3511z" stroke="none" fill="#1C252C" fill-rule="nonzero" />
    <path d="M0 6.60377C 0 2.95661 2.95661 0 6.60377 0L6.60377 0L25 0C 38.8071 0 50 11.1929 50 25C 50 38.8071 38.8071 50 25 50L25 50L6.60377 50C 2.95661 50 0 47.0434 0 43.3962L0 43.3962L0 6.60377z" stroke="none" fill="#3F54D1" fill-rule="nonzero" />
    <path d="M48.329 33.9444C 46.5083 38.6589 43.3067 42.7139 39.1432 45.5786C 34.9798 48.4434 30.0484 49.9844 24.9946 50L24.9946 50L6.7056 50C 4.92892 49.9943 3.22664 49.286 1.97033 48.0297C 0.714016 46.7734 0.00570368 45.0711 0 43.2944L0 43.2944L0 29.894C 17.4778 37.4054 35.1503 36.5888 48.329 33.9444z" stroke="none" fill="#15CDCB" fill-rule="nonzero" fill-opacity="0.14901961" />
    <path d="M6.7056 0L24.9946 0C 29.5972 0.0101562 34.1082 1.28772 38.0326 3.69256C 41.957 6.09739 45.1434 9.5366 47.242 13.6329C 32.6087 15.0822 12.5406 20.4088 0 37.5514L0 37.5514L0 6.72723C -9.20389E-06 4.9468 0.705781 3.23897 1.96271 1.97799C 3.21963 0.717011 4.92518 0.00572486 6.7056 0z" stroke="none" fill="#15CDCB" fill-rule="nonzero" fill-opacity="0.14901961" />
    <path d="M6.7056 0L24.9946 0C 31.6193 0.0185507 37.9674 2.65843 42.6518 7.34282C 47.3362 12.0272 49.976 18.3753 49.9946 25C 49.9987 27.537 49.612 30.0596 48.8482 32.4789C 35.1503 12.8867 10.1341 9.80424 0 9.38244L0 9.38244L0 6.71101C 0.0042777 4.93339 0.711961 3.22972 1.96842 1.97224C 3.22489 0.714767 4.92799 0.00571069 6.7056 0z" stroke="none" fill="#5280E2" fill-rule="nonzero" fill-opacity="0.14901961" />
    <path d="M47.1934 8.2251C 40.3907 13.285 34.0953 18.9935 28.3961 25.2703C 20.0087 34.431 15.5202 41.7747 15.5202 41.7747C 14.3817 38.9975 13.0575 36.3002 11.5563 33.701C 6.08912 24.2158 0 18.8135 0 18.8135C 9.64201 19.7814 16.0448 26.9251 16.0448 26.9251C 26.8819 17.0235 47.0474 8.2954 47.1934 8.2251z" stroke="none" fill="#4FE0B5" fill-rule="nonzero" />
</g>
</svg>