<svg data-name="Layer 1" id="Layer_1" viewBox="0 0 235.23 98.34" xmlns="http://www.w3.org/2000/svg"
     xmlns:xlink="http://www.w3.org/1999/xlink">
  <defs>
    <style>.cls-1 {
      fill: url(#linear-gradient);
    }

    .cls-2 {
      fill: url(#linear-gradient-2);
    }

    .cls-3 {
      fill: url(#linear-gradient-3);
    }

    .cls-4 {
      fill: none;
      clip-rule: evenodd;
    }

    .cls-5 {
      fill: #1c252c;
    }

    .cls-6 {
      clip-path: url(#clip-path);
    }

    .cls-7 {
      fill: #3f54d1;
    }

    .cls-8 {
      mask: url(#mask);
    }

    .cls-9 {
      fill: #15cdcb;
    }

    .cls-12, .cls-9 {
      fill-rule: evenodd;
    }

    .cls-10 {
      mask: url(#mask-2);
    }

    .cls-11 {
      mask: url(#mask-3);
    }

    .cls-12 {
      fill: #5280e2;
    }

    .cls-13 {
      fill: #4fe0b5;
    }</style>
    <linearGradient gradientTransform="translate(125.33 -155)" gradientUnits="userSpaceOnUse" id="linear-gradient"
                    x1="-15.28" x2="-80.46"
                    y1="-130.84" y2="248.15">
      <stop offset="0" stop-color="#fff"/>
      <stop offset="1"/>
    </linearGradient>
    <linearGradient gradientTransform="translate(125.33 -188.57)" id="linear-gradient-2" x1="119.19" x2="-91.88"
                    xlink:href="#linear-gradient"
                    y1="598.02" y2="201.37"/>
    <linearGradient gradientTransform="translate(125.33 -202.28)" id="linear-gradient-3" x1="-306.36" x2="-56.95"
                    xlink:href="#linear-gradient"
                    y1="680.66" y2="198.17"/>
    <clipPath id="clip-path">
      <path class="cls-4"
            d="M15.4,2.94H49.22a46.23,46.23,0,0,1,0,92.46H15.4A12.44,12.44,0,0,1,3,83V15.35A12.44,12.44,0,0,1,15.4,2.94"
            id="SVGID"/>
    </clipPath>
    <mask height="37.18" id="mask" maskUnits="userSpaceOnUse" width="89.38" x="2.99" y="58.22">
      <rect class="cls-1" height="37.18" width="89.38" x="2.99" y="58.22"/>
    </mask>
    <mask height="69.44" id="mask-2" maskUnits="userSpaceOnUse" width="87.38" x="2.99" y="2.94">
      <rect class="cls-2" height="69.44" width="87.38" x="2.99" y="2.94"/>
    </mask>
    <mask height="60.04" id="mask-3" maskUnits="userSpaceOnUse" width="92.46" x="2.99" y="2.94">
      <rect class="cls-3" height="60.04" width="92.46" x="2.99" y="2.94"/>
    </mask>
  </defs>
  <path class="cls-5"
        d="M128.57,38c0,8.3-6.16,14.67-14.25,14.67H102.58V23.28h11.74C122.41,23.28,128.57,29.66,128.57,38Zm-6.45,0c0-5-3.19-8.22-7.8-8.22h-5V46.18h5C118.93,46.18,122.12,43,122.12,38Z"/>
  <path class="cls-5"
        d="M144.72,31.25v7.13c-2.6-.42-6.29.63-6.29,4.78v9.47h-6.29v-21h6.29V35.4C139.27,32.59,142.08,31.25,144.72,31.25Z"/>
  <path class="cls-5" d="M147,26.05a3.78,3.78,0,1,1,3.78,3.77A3.81,3.81,0,0,1,147,26.05Zm.63,5.62h6.29v21h-6.29Z"/>
  <path class="cls-5" d="M178.89,31.67l-7.76,21H164l-7.76-21h7L167.57,45l4.36-13.29Z"/>
  <path class="cls-5"
        d="M180.57,26.05a3.78,3.78,0,1,1,3.77,3.77A3.81,3.81,0,0,1,180.57,26.05Zm.63,5.62h6.29v21H181.2Z"/>
  <path class="cls-5"
        d="M208.16,46.34c0,4.83-4.19,6.88-8.72,6.88-4.19,0-7.38-1.59-9-5l5.45-3.1a3.45,3.45,0,0,0,3.57,2.47c1.51,0,2.26-.46,2.26-1.3,0-2.3-10.31-1.09-10.31-8.34,0-4.57,3.86-6.88,8.22-6.88a9.17,9.17,0,0,1,8.17,4.49l-5.36,2.89a3,3,0,0,0-2.81-1.84c-1.09,0-1.77.42-1.77,1.17C197.84,40.18,208.16,38.59,208.16,46.34Z"/>
  <path class="cls-5"
        d="M232.61,31.67v21h-6.29v-2a7.87,7.87,0,0,1-6.25,2.56c-5.49,0-10-4.82-10-11.07s4.53-11.07,10-11.07a7.9,7.9,0,0,1,6.25,2.56v-2Zm-6.29,10.48a5,5,0,1,0-10,0,5,5,0,1,0,10,0Z"/>
  <path class="cls-5"
        d="M115.64,71.37c0,3.13-2.39,5.74-6.26,5.74a6.68,6.68,0,1,1-.07-13.36,6.41,6.41,0,0,1,5.57,3.12l-.87.52a5.27,5.27,0,0,0-4.7-2.7,5.74,5.74,0,1,0,.07,11.48c3.15,0,5.05-2,5.26-4.37h-5.5v-.93h6.5Z"/>
  <path class="cls-5"
        d="M128.11,72.32c0,.14,0,.29,0,.44h-8.38a3.76,3.76,0,0,0,3.92,3.46,3.51,3.51,0,0,0,3.2-1.68l.82.48a4.57,4.57,0,0,1-4,2.09,4.84,4.84,0,1,1,4.5-4.79Zm-8.4-.47h7.44a3.6,3.6,0,0,0-3.61-3.51A3.72,3.72,0,0,0,119.71,71.85Z"/>
  <path class="cls-5"
        d="M133.44,68.56v6c0,1.63.87,1.67,2.76,1.5v.84c-2.43.37-3.7-.22-3.7-2.34v-6h-2v-.91h2V65.34l.94-.28v2.59h2.76v.91Z"/>
  <path class="cls-5"
        d="M157.05,75.24l1.52,1.5-.66.61-1.56-1.52a6.69,6.69,0,1,1,.7-.59Zm-1.38-.09-2.87-2.83.66-.61,2.91,2.86a5.78,5.78,0,0,0,1.74-4.14,5.7,5.7,0,1,0-5.7,5.74A5.63,5.63,0,0,0,155.67,75.15Z"/>
  <path class="cls-5"
        d="M170.58,67.65v9.26h-.92V75.15a3.49,3.49,0,0,1-3.32,2,3.41,3.41,0,0,1-3.59-3.7V67.65h.95v5.76a2.55,2.55,0,0,0,2.72,2.81c1.81,0,3.24-1.18,3.24-3.68V67.65Z"/>
  <path class="cls-5"
        d="M184,67.65v9.26H183v-2.1a4.45,4.45,0,0,1-4,2.3,4.83,4.83,0,0,1,0-9.66,4.46,4.46,0,0,1,4,2.29V67.65ZM183,72.28a3.92,3.92,0,1,0-3.91,3.94A3.88,3.88,0,0,0,183,72.28Z"/>
  <path class="cls-5" d="M188.29,63.4h.93V76.91h-.93Z"/>
  <path class="cls-5" d="M193.25,64.67a.74.74,0,1,1,.74.74A.74.74,0,0,1,193.25,64.67Zm.28,3h.93v9.26h-.93Z"/>
  <path class="cls-5"
        d="M200.38,67.15v.5h2.76v.91h-2.76v8.35h-.95V68.56h-1.59v-.91h1.59v-.5c0-2.27,1.28-3.59,3.71-3.4v.89C201.25,64.49,200.38,65.36,200.38,67.15Z"/>
  <path class="cls-5" d="M205.75,64.67a.74.74,0,0,1,1.48,0,.74.74,0,1,1-1.48,0Zm.27,3H207v9.26H206Z"/>
  <path class="cls-5"
        d="M220,72.32c0,.14,0,.29,0,.44h-8.39a3.78,3.78,0,0,0,3.93,3.46,3.52,3.52,0,0,0,3.2-1.68l.81.48a4.55,4.55,0,0,1-4,2.09,4.84,4.84,0,1,1,4.5-4.79Zm-8.41-.47H219a3.59,3.59,0,0,0-3.61-3.51A3.73,3.73,0,0,0,211.59,71.85Z"/>
  <path class="cls-5"
        d="M232.71,64v13h-.92V74.76a4.38,4.38,0,0,1-4,2.35,4.83,4.83,0,0,1,0-9.66,4.38,4.38,0,0,1,4,2.35V64Zm-.92,8.33a3.93,3.93,0,1,0-3.93,3.94A3.9,3.9,0,0,0,231.79,72.28Z"/>
  <g class="cls-6">
    <rect class="cls-7" height="92.46" width="92.46" x="2.99" y="2.94"/>
  </g>
  <g class="cls-8">
    <path class="cls-9"
          d="M92.37,65.71A46.41,46.41,0,0,1,49.22,95.4H15.4A12.44,12.44,0,0,1,3,83V58.22C35.32,72.11,68,70.6,92.37,65.71"/>
  </g>
  <g class="cls-10">
    <path class="cls-9"
          d="M15.4,2.94H49.22A46.34,46.34,0,0,1,90.36,28.15C63.3,30.83,26.19,40.68,3,72.38v-57A12.44,12.44,0,0,1,15.4,2.94"/>
  </g>
  <g class="cls-11">
    <path class="cls-12"
          d="M15.4,2.94H49.22A46.36,46.36,0,0,1,95.45,49.17,45.69,45.69,0,0,1,93.33,63C68,26.77,21.74,21.07,3,20.29V15.35A12.44,12.44,0,0,1,15.4,2.94"/>
  </g>
  <path class="cls-13"
        d="M90.27,18.15A242.18,242.18,0,0,0,55.51,49.67C40,66.61,31.7,80.19,31.7,80.19a123.58,123.58,0,0,0-7.33-14.93C14.26,47.72,3,37.73,3,37.73c17.83,1.79,29.67,15,29.67,15C52.71,34.42,90,18.28,90.27,18.15Z"/>
</svg>
