<svg data-name="Layer 1" id="Layer_1" viewBox="0 0 235.23 98.34" xmlns="http://www.w3.org/2000/svg"
     xmlns:xlink="http://www.w3.org/1999/xlink">
  <defs>
    <style>.cls-1 {
      fill: url(#linear-gradient);
    }

    .cls-2 {
      fill: url(#linear-gradient-2);
    }

    .cls-3 {
      fill: url(#linear-gradient-3);
    }

    .cls-4 {
      fill: none;
      clip-rule: evenodd;
    }

    .cls-5 {
      fill: #fff;
    }

    .cls-6 {
      clip-path: url(#clip-path);
    }

    .cls-7 {
      fill: #3f54d1;
    }

    .cls-8 {
      mask: url(#mask);
    }

    .cls-9 {
      fill: #15cdcb;
    }

    .cls-12, .cls-9 {
      fill-rule: evenodd;
    }

    .cls-10 {
      mask: url(#mask-2);
    }

    .cls-11 {
      mask: url(#mask-3);
    }

    .cls-12 {
      fill: #5280e2;
    }

    .cls-13 {
      fill: #4fe0b5;
    }</style>
    <linearGradient gradientTransform="translate(125.33 -155)" gradientUnits="userSpaceOnUse" id="linear-gradient"
                    x1="-15.51" x2="-80.69"
                    y1="-130.84" y2="248.15">
      <stop offset="0" stop-color="#fff"/>
      <stop offset="1"/>
    </linearGradient>
    <linearGradient gradientTransform="translate(125.33 -188.57)" id="linear-gradient-2" x1="118.96" x2="-92.11"
                    xlink:href="#linear-gradient"
                    y1="598.02" y2="201.37"/>
    <linearGradient gradientTransform="translate(125.33 -202.28)" id="linear-gradient-3" x1="-306.59" x2="-57.18"
                    xlink:href="#linear-gradient"
                    y1="680.66" y2="198.17"/>
    <clipPath id="clip-path">
      <path class="cls-4"
            d="M15.17,2.94H49A46.23,46.23,0,0,1,49,95.4H15.17A12.44,12.44,0,0,1,2.76,83V15.35A12.44,12.44,0,0,1,15.17,2.94"
            id="SVGID"/>
    </clipPath>
    <mask height="37.18" id="mask" maskUnits="userSpaceOnUse" width="89.38" x="2.76" y="58.22">
      <rect class="cls-1" height="37.18" width="89.38" x="2.76" y="58.22"/>
    </mask>
    <mask height="69.44" id="mask-2" maskUnits="userSpaceOnUse" width="87.38" x="2.76" y="2.94">
      <rect class="cls-2" height="69.44" width="87.38" x="2.76" y="2.94"/>
    </mask>
    <mask height="60.04" id="mask-3" maskUnits="userSpaceOnUse" width="92.46" x="2.76" y="2.94">
      <rect class="cls-3" height="60.04" width="92.46" x="2.76" y="2.94"/>
    </mask>
  </defs>
  <path class="cls-5"
        d="M128.35,38c0,8.3-6.17,14.67-14.26,14.67H102.35V23.28h11.74C122.18,23.28,128.35,29.66,128.35,38Zm-6.46,0c0-5-3.19-8.22-7.8-8.22h-5V46.18h5C118.7,46.18,121.89,43,121.89,38Z"/>
  <path class="cls-5"
        d="M144.49,31.25v7.13c-2.6-.42-6.29.63-6.29,4.78v9.47h-6.29v-21h6.29V35.4C139,32.59,141.85,31.25,144.49,31.25Z"/>
  <path class="cls-5"
        d="M146.79,26.05a3.78,3.78,0,1,1,3.78,3.77A3.81,3.81,0,0,1,146.79,26.05Zm.63,5.62h6.29v21h-6.29Z"/>
  <path class="cls-5" d="M178.66,31.67l-7.75,21h-7.13l-7.76-21h7L167.34,45l4.36-13.29Z"/>
  <path class="cls-5" d="M180.34,26.05a3.78,3.78,0,1,1,3.77,3.77A3.81,3.81,0,0,1,180.34,26.05Zm.63,5.62h6.29v21H181Z"/>
  <path class="cls-5"
        d="M207.93,46.34c0,4.83-4.19,6.88-8.72,6.88-4.19,0-7.38-1.59-9-5l5.46-3.1a3.43,3.43,0,0,0,3.56,2.47c1.51,0,2.26-.46,2.26-1.3,0-2.3-10.31-1.09-10.31-8.34,0-4.57,3.86-6.88,8.22-6.88a9.17,9.17,0,0,1,8.17,4.49l-5.36,2.89a3,3,0,0,0-2.81-1.84c-1.09,0-1.76.42-1.76,1.17C197.62,40.18,207.93,38.59,207.93,46.34Z"/>
  <path class="cls-5"
        d="M232.38,31.67v21h-6.29v-2a7.87,7.87,0,0,1-6.25,2.56c-5.49,0-10-4.82-10-11.07s4.53-11.07,10-11.07a7.9,7.9,0,0,1,6.25,2.56v-2Zm-6.29,10.48a5,5,0,1,0-10,0,5,5,0,1,0,10,0Z"/>
  <path class="cls-5"
        d="M115.41,71.37c0,3.13-2.39,5.74-6.26,5.74a6.68,6.68,0,1,1-.07-13.36,6.4,6.4,0,0,1,5.57,3.12l-.87.52a5.27,5.27,0,0,0-4.7-2.7,5.74,5.74,0,1,0,.07,11.48c3.15,0,5.06-2,5.26-4.37h-5.5v-.93h6.5Z"/>
  <path class="cls-5"
        d="M127.88,72.32c0,.14,0,.29,0,.44h-8.38a3.76,3.76,0,0,0,3.92,3.46,3.51,3.51,0,0,0,3.2-1.68l.82.48a4.56,4.56,0,0,1-4,2.09,4.84,4.84,0,1,1,4.5-4.79Zm-8.4-.47h7.44a3.59,3.59,0,0,0-3.61-3.51A3.72,3.72,0,0,0,119.48,71.85Z"/>
  <path class="cls-5"
        d="M133.21,68.56v6c0,1.63.87,1.67,2.76,1.5v.84c-2.43.37-3.7-.22-3.7-2.34v-6h-2v-.91h2V65.34l.94-.28v2.59H136v.91Z"/>
  <path class="cls-5"
        d="M156.83,75.24l1.51,1.5-.66.61-1.56-1.52a6.58,6.58,0,1,1,.71-.59Zm-1.39-.09-2.87-2.83.67-.61,2.9,2.86a5.7,5.7,0,1,0-4,1.6A5.63,5.63,0,0,0,155.44,75.15Z"/>
  <path class="cls-5"
        d="M170.35,67.65v9.26h-.92V75.15a3.48,3.48,0,0,1-3.31,2,3.41,3.41,0,0,1-3.59-3.7V67.65h.94v5.76a2.55,2.55,0,0,0,2.72,2.81c1.81,0,3.24-1.18,3.24-3.68V67.65Z"/>
  <path class="cls-5"
        d="M183.75,67.65v9.26h-.94v-2.1a4.45,4.45,0,0,1-4,2.3,4.83,4.83,0,0,1,0-9.66,4.46,4.46,0,0,1,4,2.29V67.65Zm-.94,4.63a3.92,3.92,0,1,0-3.9,3.94A3.88,3.88,0,0,0,182.81,72.28Z"/>
  <path class="cls-5" d="M188.06,63.4H189V76.91h-.93Z"/>
  <path class="cls-5" d="M193,64.67a.75.75,0,1,1,.75.74A.74.74,0,0,1,193,64.67Zm.28,3h.93v9.26h-.93Z"/>
  <path class="cls-5"
        d="M200.15,67.15v.5h2.76v.91h-2.76v8.35h-.94V68.56h-1.6v-.91h1.6v-.5c0-2.27,1.27-3.59,3.7-3.4v.89C201,64.49,200.15,65.36,200.15,67.15Z"/>
  <path class="cls-5" d="M205.52,64.67a.74.74,0,0,1,1.48,0,.74.74,0,0,1-1.48,0Zm.27,3h.93v9.26h-.93Z"/>
  <path class="cls-5"
        d="M219.77,72.32c0,.14,0,.29,0,.44h-8.38a3.76,3.76,0,0,0,3.92,3.46,3.52,3.52,0,0,0,3.2-1.68l.82.48a4.57,4.57,0,0,1-4,2.09,4.84,4.84,0,1,1,4.5-4.79Zm-8.4-.47h7.44a3.6,3.6,0,0,0-3.61-3.51A3.72,3.72,0,0,0,211.37,71.85Z"/>
  <path class="cls-5"
        d="M232.48,64v13h-.92V74.76a4.38,4.38,0,0,1-4,2.35,4.83,4.83,0,0,1,0-9.66,4.38,4.38,0,0,1,4,2.35V64Zm-.92,8.33a3.93,3.93,0,1,0-3.93,3.94A3.9,3.9,0,0,0,231.56,72.28Z"/>
  <g class="cls-6">
    <rect class="cls-7" height="92.46" width="92.46" x="2.76" y="2.94"/>
  </g>
  <g class="cls-8">
    <path class="cls-9"
          d="M92.14,65.71A46.4,46.4,0,0,1,49,95.4H15.17A12.44,12.44,0,0,1,2.76,83V58.22c32.34,13.89,65,12.38,89.38,7.49"/>
  </g>
  <g class="cls-10">
    <path class="cls-9"
          d="M15.17,2.94H49A46.34,46.34,0,0,1,90.13,28.15C63.07,30.83,26,40.68,2.76,72.38v-57A12.44,12.44,0,0,1,15.17,2.94"/>
  </g>
  <g class="cls-11">
    <path class="cls-12"
          d="M15.17,2.94H49A46.36,46.36,0,0,1,95.22,49.17,45.69,45.69,0,0,1,93.1,63C67.81,26.77,21.51,21.07,2.76,20.29V15.35A12.44,12.44,0,0,1,15.17,2.94"/>
  </g>
  <path class="cls-13"
        d="M90,18.15A242.72,242.72,0,0,0,55.28,49.67C39.81,66.61,31.47,80.19,31.47,80.19a123.58,123.58,0,0,0-7.33-14.93C14,47.72,2.75,37.73,2.75,37.73c17.83,1.79,29.67,15,29.67,15C52.49,34.42,89.75,18.28,90,18.15Z"/>
</svg>
