<?xml version="1.0" encoding="UTF-8"?>
<!DOCTYPE svg PUBLIC "-//W3C//DTD SVG 1.1//EN" "http://www.w3.org/Graphics/SVG/1.1/DTD/svg11.dtd">
<svg version="1.2" width="261.11mm" height="210.06mm" viewBox="0 0 26111 21006" preserveAspectRatio="xMidYMid" fill-rule="evenodd" stroke-width="28.222" stroke-linejoin="round" xmlns="http://www.w3.org/2000/svg" xmlns:ooo="http://xml.openoffice.org/svg/export" xmlns:xlink="http://www.w3.org/1999/xlink" xmlns:presentation="http://sun.com/xmlns/staroffice/presentation" xmlns:smil="http://www.w3.org/2001/SMIL20/" xmlns:anim="urn:oasis:names:tc:opendocument:xmlns:animation:1.0" xml:space="preserve">
 <defs class="ClipPathGroup">
  <clipPath id="presentation_clip_path" clipPathUnits="userSpaceOnUse">
   <rect x="0" y="0" width="26111" height="21006"/>
  </clipPath>
  <clipPath id="presentation_clip_path_shrink" clipPathUnits="userSpaceOnUse">
   <rect x="26" y="21" width="26059" height="20964"/>
  </clipPath>
 </defs>
 <defs class="TextShapeIndex">
  <g ooo:slide="id1" ooo:id-list="id3 id4 id5 id6"/>
 </defs>
 <defs class="EmbeddedBulletChars">
  <g id="bullet-char-template-57356" transform="scale(0.00048828125,-0.00048828125)">
   <path d="M 580,1141 L 1163,571 580,0 -4,571 580,1141 Z"/>
  </g>
  <g id="bullet-char-template-57354" transform="scale(0.00048828125,-0.00048828125)">
   <path d="M 8,1128 L 1137,1128 1137,0 8,0 8,1128 Z"/>
  </g>
  <g id="bullet-char-template-10146" transform="scale(0.00048828125,-0.00048828125)">
   <path d="M 174,0 L 602,739 174,1481 1456,739 174,0 Z M 1358,739 L 309,1346 659,739 1358,739 Z"/>
  </g>
  <g id="bullet-char-template-10132" transform="scale(0.00048828125,-0.00048828125)">
   <path d="M 2015,739 L 1276,0 717,0 1260,543 174,543 174,936 1260,936 717,1481 1274,1481 2015,739 Z"/>
  </g>
  <g id="bullet-char-template-10007" transform="scale(0.00048828125,-0.00048828125)">
   <path d="M 0,-2 C -7,14 -16,27 -25,37 L 356,567 C 262,823 215,952 215,954 215,979 228,992 255,992 264,992 276,990 289,987 310,991 331,999 354,1012 L 381,999 492,748 772,1049 836,1024 860,1049 C 881,1039 901,1025 922,1006 886,937 835,863 770,784 769,783 710,716 594,584 L 774,223 C 774,196 753,168 711,139 L 727,119 C 717,90 699,76 672,76 641,76 570,178 457,381 L 164,-76 C 142,-110 111,-127 72,-127 30,-127 9,-110 8,-76 1,-67 -2,-52 -2,-32 -2,-23 -1,-13 0,-2 Z"/>
  </g>
  <g id="bullet-char-template-10004" transform="scale(0.00048828125,-0.00048828125)">
   <path d="M 285,-33 C 182,-33 111,30 74,156 52,228 41,333 41,471 41,549 55,616 82,672 116,743 169,778 240,778 293,778 328,747 346,684 L 369,508 C 377,444 397,411 428,410 L 1163,1116 C 1174,1127 1196,1133 1229,1133 1271,1133 1292,1118 1292,1087 L 1292,965 C 1292,929 1282,901 1262,881 L 442,47 C 390,-6 338,-33 285,-33 Z"/>
  </g>
  <g id="bullet-char-template-9679" transform="scale(0.00048828125,-0.00048828125)">
   <path d="M 813,0 C 632,0 489,54 383,161 276,268 223,411 223,592 223,773 276,916 383,1023 489,1130 632,1184 813,1184 992,1184 1136,1130 1245,1023 1353,916 1407,772 1407,592 1407,412 1353,268 1245,161 1136,54 992,0 813,0 Z"/>
  </g>
  <g id="bullet-char-template-8226" transform="scale(0.00048828125,-0.00048828125)">
   <path d="M 346,457 C 273,457 209,483 155,535 101,586 74,649 74,723 74,796 101,859 155,911 209,963 273,989 346,989 419,989 480,963 531,910 582,859 608,796 608,723 608,648 583,586 532,535 482,483 420,457 346,457 Z"/>
  </g>
  <g id="bullet-char-template-8211" transform="scale(0.00048828125,-0.00048828125)">
   <path d="M -4,459 L 1135,459 1135,606 -4,606 -4,459 Z"/>
  </g>
  <g id="bullet-char-template-61548" transform="scale(0.00048828125,-0.00048828125)">
   <path d="M 173,740 C 173,903 231,1043 346,1159 462,1274 601,1332 765,1332 928,1332 1067,1274 1183,1159 1299,1043 1357,903 1357,740 1357,577 1299,437 1183,322 1067,206 928,148 765,148 601,148 462,206 346,322 231,437 173,577 173,740 Z"/>
  </g>
 </defs>
 <g>
  <g id="id2" class="Master_Slide">
   <g id="bg-id2" class="Background"/>
   <g id="bo-id2" class="BackgroundObjects"/>
  </g>
 </g>
 <g class="SlideGroup">
  <g>
   <g id="container-id1">
    <g id="id1" class="Slide" clip-path="url(#presentation_clip_path)">
     <g class="Page">
      <g class="com.sun.star.drawing.CustomShape">
       <g id="id3">
        <rect class="BoundingBox" stroke="none" fill="none" x="5779" y="5212" width="15491" height="15491"/>
        <path fill="rgb(33,150,243)" stroke="none" d="M 5787,12595 L 5781,12786 5779,12977 5782,13168 5789,13360 5802,13551 5818,13741 5840,13931 5866,14121 5898,14310 5934,14497 5974,14684 6019,14871 6069,15055 6123,15239 6182,15421 6244,15601 6312,15780 6383,15957 6460,16133 6540,16306 6626,16478 6715,16647 6808,16814 6905,16979 7006,17141 7112,17301 7221,17458 7334,17613 7451,17764 7571,17912 7696,18057 7823,18200 7955,18340 8089,18475 8227,18608 8369,18737 8512,18862 8660,18984 8811,19102 8964,19217 9120,19328 9278,19435 9440,19537 9603,19636 9769,19731 9937,19821 10109,19908 10281,19990 10456,20068 10633,20142 10811,20211 10991,20276 11172,20336 11355,20392 11540,20443 11725,20490 11911,20532 12099,20570 12288,20603 12476,20631 12667,20654 12857,20673 13047,20687 13239,20697 13430,20701 13622,20702 13812,20697 14003,20688 14195,20673 14384,20654 14574,20631 14764,20602 14952,20569 15140,20532 15326,20489 15512,20443 15695,20391 15879,20335 16060,20275 16241,20210 16419,20141 16596,20067 16769,19989 16943,19907 17113,19821 17282,19730 17447,19634 17611,19535 17772,19433 17931,19326 18087,19215 18240,19100 18390,18982 18538,18860 18682,18735 18823,18605 18961,18473 19096,18336 19227,18198 19354,18054 19479,17909 19600,17761 19716,17610 19829,17455 19938,17298 20044,17138 20145,16976 20242,16811 20335,16644 20424,16475 20509,16304 20589,16130 20665,15954 20737,15777 20805,15598 20868,15418 20926,15236 20980,15052 21030,14867 21075,14682 21115,14494 21150,14306 21182,14118 21208,13928 21230,13738 21246,13548 21259,13357 21267,13165 21269,12974 21267,12783 21260,12592 21249,12401 21233,12210 21212,12020 21187,11830 21156,11642 21122,11454 21082,11267 21038,11080 20990,10896 20936,10711 20879,10529 20816,10348 20750,10169 20679,9992 20603,9816 20524,9642 20439,9470 20351,9300 20259,9132 20162,8967 20062,8805 19957,8645 19849,8487 19736,8332 19620,8180 19501,8031 19377,7885 19250,7742 19119,7602 18985,7466 18848,7332 18708,7203 18564,7076 18417,6954 18268,6835 18115,6720 17960,6608 17801,6500 17641,6397 17478,6297 17311,6201 17144,6109 16973,6023 16801,5940 16627,5860 16451,5787 16273,5716 16093,5651 15912,5589 15729,5532 15545,5481 15360,5432 15174,5390 14986,5351 14798,5317 14609,5289 14418,5264 14229,5244 14038,5229 13847,5219 13656,5213 13464,5212 13273,5216 13082,5225 12892,5238 12701,5256 12510,5278 12322,5306 12133,5338 11945,5375 11758,5416 11573,5462 11389,5513 11205,5568 11023,5626 10843,5691 10665,5760 10488,5832 10312,5909 10139,5991 9968,6076 9800,6166 9633,6260 9468,6358 9307,6461 9147,6567 8991,6677 11245,9799 11405,9689 11571,9588 11740,9494 11916,9410 12094,9334 12276,9267 12462,9209 12650,9161 12840,9122 13032,9093 13225,9073 13419,9063 13614,9063 13808,9073 14001,9092 14193,9120 14383,9158 14571,9205 14757,9262 14939,9328 15118,9403 15293,9487 15465,9580 15630,9680 15791,9789 15946,9906 16095,10031 16237,10163 16374,10302 16502,10447 16624,10598 16738,10755 16843,10918 16940,11087 17029,11259 17110,11436 17181,11617 17243,11800 17297,11987 17340,12177 17374,12368 17399,12560 17414,12753 17419,12948 17414,13141 17400,13335 17377,13528 17344,13719 17301,13909 17249,14096 17188,14281 17117,14461 17037,14638 16949,14811 16853,14980 16748,15144 16635,15301 16514,15454 16386,15599 16251,15739 16108,15871 15960,15996 15805,16114 15646,16223 15480,16326 15310,16419 15135,16503 14956,16579 14774,16646 14589,16704 14401,16752 14210,16791 14018,16820 13826,16840 13631,16851 13437,16851 13244,16842 13050,16823 12859,16795 12668,16757 12480,16709 12294,16653 12111,16587 11932,16512 11757,16429 11586,16336 11420,16235 11259,16126 11104,16009 10955,15885 10813,15753 10676,15615 10548,15469 10426,15318 10312,15161 10206,14998 10108,14830 10020,14658 9939,14481 9868,14300 9806,14117 9752,13930 9709,13740 9675,13550 9649,13357 9635,13163 9629,12969 9634,12775 5787,12595 Z"/>
       </g>
      </g>
      <g class="com.sun.star.drawing.CustomShape">
       <g id="id4">
        <rect class="BoundingBox" stroke="none" fill="none" x="5742" y="5342" width="3903" height="11965"/>
        <path fill="rgb(33,150,243)" stroke="none" d="M 7668,5580 L 7668,5580 C 7328,5380 6994,5305 6701,5361 6407,5417 6164,5603 5996,5900 5828,6198 5740,6596 5742,7055 L 5770,13316 5770,13316 C 5772,13775 5863,14278 6035,14775 6207,15272 6453,15746 6748,16148 7043,16551 7378,16868 7718,17068 L 7718,17068 7718,17068 C 8058,17268 8392,17343 8685,17287 8979,17231 9222,17045 9390,16748 9558,16450 9646,16052 9644,15593 L 9616,9332 9616,9332 9616,9332 C 9614,8873 9523,8370 9351,7873 9179,7376 8933,6902 8638,6500 8343,6097 8008,5780 7668,5580 L 7668,5580 Z"/>
       </g>
      </g>
      <g class="com.sun.star.drawing.CustomShape">
       <g id="id5">
        <rect class="BoundingBox" stroke="none" fill="none" x="5735" y="4567" width="3547" height="9346"/>
        <path fill="rgb(33,150,243)" stroke="none" d="M 7499,5430 L 7499,5430 C 7809,5581 8114,5924 8384,6423 8653,6923 8878,7561 9036,8275 9193,8989 9277,9752 9281,10489 L 9281,10489 9281,10489 C 9284,11226 9205,11910 9053,12472 8901,13034 8681,13456 8414,13693 8147,13930 7844,13975 7535,13824 L 5771,12962 5736,4568 7499,5430 Z"/>
       </g>
      </g>
      <g class="com.sun.star.drawing.CustomShape">
       <g id="id6">
        <rect class="BoundingBox" stroke="none" fill="none" x="5715" y="635" width="3200" height="3200"/>
        <path fill="rgb(30,33,41)" stroke="none" d="M 8914,2234 C 8914,2515 8840,2791 8700,3034 8559,3277 8357,3479 8114,3620 7871,3760 7595,3834 7315,3834 7034,3834 6758,3760 6515,3620 6272,3479 6070,3277 5929,3034 5789,2791 5715,2515 5715,2235 5715,1954 5789,1678 5929,1435 6070,1192 6272,990 6515,849 6758,709 7034,635 7314,635 7595,635 7871,709 8114,849 8357,990 8559,1192 8700,1435 8840,1678 8914,1954 8914,2234 L 8914,2234 Z"/>
       </g>
      </g>
     </g>
    </g>
   </g>
  </g>
 </g>
</svg>